<?xml version="1.0" encoding="UTF-8"?>
<svg xmlns="http://www.w3.org/2000/svg" xmlns:xlink="http://www.w3.org/1999/xlink" width="192px" height="192px" viewBox="0 0 192 192" version="1.1">
<g id="surface1">
<path style=" stroke:none;fill-rule:nonzero;fill:rgb(5.882353%,34.509805%,94.117647%);fill-opacity:1;" d="M 0 0 L 192 0 L 192 192 L 0 192 Z M 126.347656 65.625 L 123.375 65.625 L 123.375 88.125 L 125.394531 88.125 C 125.457031 88.125 125.511719 88.125 125.570312 88.125 C 126.328125 88.125 126.824219 88.128906 127.15625 87.890625 C 127.800781 87.421875 127.769531 86.015625 127.683594 81.855469 C 127.679688 81.699219 127.675781 81.539062 127.671875 81.375 C 127.550781 75.597656 127.75 73.601562 128.386719 74.234375 C 128.609375 74.460938 129.835938 77.640625 131.105469 81.292969 L 133.410156 87.9375 L 135.199219 87.9375 C 136.902344 87.9375 137.011719 87.875 137.460938 86.625 C 137.722656 85.902344 138.851562 82.695312 139.96875 79.5 C 141.089844 76.304688 142.160156 73.730469 142.347656 73.78125 C 142.535156 73.832031 142.734375 77.082031 142.789062 81 L 142.890625 88.125 L 147 88.125 L 147 65.625 L 141.1875 65.628906 L 138.96875 72.09375 C 136.214844 80.105469 135.4375 81.972656 135.039062 81.527344 C 134.769531 81.238281 130.332031 68.992188 129.578125 66.46875 C 129.339844 65.683594 129.109375 65.625 126.347656 65.625 Z M 80.5 92.375 C 80.636719 92.511719 81.304688 92.625 81.984375 92.625 C 83.1875 92.625 83.21875 92.578125 83.65625 90.375 L 84.097656 88.125 L 101.164062 88.125 L 101.671875 90.28125 C 102.179688 92.394531 102.210938 92.4375 103.5 92.4375 L 104.8125 92.4375 L 104.917969 88.40625 L 105.027344 84.375 L 103.722656 84.375 C 103.003906 84.375 102.28125 84.164062 102.117188 83.90625 C 101.808594 83.433594 98.234375 74.996094 95.75 68.886719 L 94.40625 65.585938 L 90.953125 65.8125 L 88.671875 71.25 C 87.417969 74.242188 85.664062 78.417969 84.777344 80.53125 L 83.167969 84.375 L 80.25 84.375 L 80.25 88.25 C 80.25 90.382812 80.363281 92.238281 80.5 92.375 Z M 153 99.273438 L 153 121.875 L 157.21875 121.871094 C 159.539062 121.871094 162.105469 121.683594 162.917969 121.457031 C 165.96875 120.613281 167.976562 117.21875 167.417969 113.863281 C 167.230469 112.734375 166.75 111.921875 165.648438 110.867188 C 164.820312 110.074219 164.300781 109.316406 164.496094 109.179688 C 166.113281 108.082031 166.613281 104.832031 165.519531 102.53125 C 164.441406 100.253906 162.914062 99.65625 157.640625 99.453125 Z M 158.625 87.824219 C 158.625 87.988281 159.625 88.125 160.847656 88.125 L 163.074219 88.125 L 165.457031 84.28125 C 167.160156 81.535156 168.078125 80.402344 168.671875 80.316406 C 169.550781 80.191406 169.609375 80.527344 169.667969 86.25 L 169.6875 87.9375 L 174 88.164062 L 174 65.625 L 170.34375 65.648438 C 163.886719 65.683594 162.058594 66.289062 160.21875 68.996094 C 159.5625 69.964844 159.375 70.765625 159.375 72.632812 C 159.375 75.4375 160.265625 77.511719 161.992188 78.742188 C 162.613281 79.1875 163.125 79.703125 163.125 79.886719 C 163.125 80.070312 162.113281 81.867188 160.875 83.871094 C 159.636719 85.882812 158.625 87.660156 158.625 87.824219 Z M 16.609375 87.488281 C 16.421875 88.09375 16.636719 88.152344 18.773438 88.050781 L 21.140625 87.9375 L 23.347656 82.476562 L 27.457031 82.582031 L 31.570312 82.6875 L 33.855469 88.125 L 36.050781 88.125 C 37.261719 88.125 38.25 87.96875 38.25 87.773438 C 38.25 87.582031 36.761719 83.910156 34.941406 79.617188 C 33.128906 75.328125 31.058594 70.421875 30.347656 68.722656 L 29.0625 65.636719 L 25.6875 65.625 L 23.464844 70.96875 C 22.242188 73.910156 20.246094 78.675781 19.027344 81.5625 C 17.8125 84.449219 16.726562 87.117188 16.609375 87.488281 Z M 57.746094 87.84375 C 57.746094 87.996094 58.738281 88.125 59.949219 88.125 L 62.148438 88.125 L 64.601562 82.5 L 72.636719 82.5 L 73.242188 83.90625 C 73.570312 84.679688 74.097656 85.945312 74.402344 86.71875 L 74.960938 88.125 L 77.230469 88.125 C 78.480469 88.125 79.5 88.054688 79.5 87.96875 C 79.5 87.792969 71.558594 68.746094 70.691406 66.84375 C 70.1875 65.742188 69.984375 65.625 68.5 65.625 L 66.867188 65.625 L 62.300781 76.59375 C 59.792969 82.628906 57.742188 87.691406 57.746094 87.84375 Z M 40.117188 121.59375 C 40.121094 121.746094 41.113281 121.875 42.324219 121.875 L 44.523438 121.875 L 46.976562 116.25 L 54.988281 116.25 L 57.460938 121.875 L 59.671875 121.875 C 60.882812 121.875 61.863281 121.746094 61.851562 121.59375 C 61.835938 121.441406 59.757812 116.417969 57.230469 110.4375 L 52.628906 99.5625 L 49.253906 99.335938 L 44.679688 110.324219 C 42.164062 116.371094 40.113281 121.441406 40.117188 121.59375 Z M 64.5 99.375 L 64.5 121.875 L 68.625 121.875 L 68.625 103.5 L 76.125 103.5 L 76.125 121.875 L 80.25 121.875 L 80.25 99.375 Z M 125.625 99.375 L 125.625 121.914062 L 129.9375 121.6875 L 130.007812 118.875 C 130.050781 117.328125 130.089844 115.429688 130.101562 114.652344 C 130.121094 113.402344 130.199219 113.292969 130.78125 113.667969 C 131.308594 114.003906 135.234375 119.367188 136.460938 121.425781 C 136.667969 121.765625 137.507812 121.878906 139.28125 121.800781 L 141.808594 121.6875 L 139.464844 118.5 C 138.175781 116.75 136.324219 114.222656 135.34375 112.882812 L 133.570312 110.457031 L 134.367188 109.320312 C 134.800781 108.699219 136.640625 106.292969 138.453125 103.976562 C 140.269531 101.660156 141.75 99.679688 141.75 99.570312 C 141.75 99.460938 140.664062 99.375 139.335938 99.375 L 136.921875 99.375 L 134.054688 103.3125 C 130.289062 108.476562 129.925781 108.488281 130.105469 103.445312 C 130.246094 99.640625 130.082031 99.375 127.660156 99.375 Z M 108.1875 121.65625 C 109.011719 121.949219 110.867188 122.203125 112.3125 122.214844 C 114.554688 122.238281 115.289062 122.066406 117.359375 121.027344 C 119.578125 119.914062 122.25 117.289062 122.25 116.21875 C 122.25 116.03125 121.136719 115.875 119.769531 115.875 C 117.6875 115.875 117.125 116.019531 116.195312 116.800781 C 114.847656 117.9375 112.515625 118.609375 111.109375 118.269531 C 107.125 117.3125 104.625 114.351562 104.625 110.597656 C 104.625 108.21875 105.957031 105.574219 107.785156 104.320312 C 110.441406 102.503906 115.265625 102.941406 117.382812 105.199219 C 118.097656 105.960938 118.613281 106.125 120.25 106.125 C 121.398438 106.125 122.25 105.957031 122.25 105.730469 C 122.25 104.144531 119.421875 101.253906 116.644531 99.992188 C 114.183594 98.875 109.5625 98.894531 107.25 100.027344 C 104.582031 101.335938 102.808594 103.027344 101.609375 105.40625 C 100.65625 107.292969 100.5 108.027344 100.5 110.578125 C 100.5 113.210938 100.640625 113.835938 101.722656 115.921875 C 103.066406 118.515625 105.542969 120.710938 108.1875 121.65625 Z M 40.875 65.625 L 40.875 88.125 L 45 88.125 L 45 83.636719 C 45 80.1875 45.109375 79.195312 45.46875 79.351562 C 45.726562 79.460938 47.289062 81.484375 48.9375 83.839844 L 51.9375 88.121094 L 54.472656 88.125 L 57.007812 88.125 L 55.691406 86.34375 C 50.90625 79.871094 48.75 76.832031 48.75 76.566406 C 48.75 76.398438 49.304688 75.597656 49.988281 74.785156 C 50.667969 73.976562 52.375 71.792969 53.785156 69.9375 C 55.195312 68.082031 56.515625 66.351562 56.722656 66.09375 C 57.011719 65.730469 56.523438 65.625 54.515625 65.625 L 51.9375 65.625 L 48.832031 69.9375 C 47.121094 72.308594 45.5625 74.25 45.363281 74.25 C 45.148438 74.25 45 72.460938 45 69.9375 L 45 65.625 Z M 107.625 65.625 L 107.625 88.125 L 119.625 88.125 L 119.625 84.402344 L 115.78125 84.292969 L 111.9375 84.1875 L 111.714844 79.125 L 119.25 79.125 L 119.25 75 L 111.75 75 L 111.75 69.777344 L 115.59375 69.667969 L 119.4375 69.5625 L 119.664062 65.625 Z M 28.464844 121.375 C 33.339844 123.953125 39.410156 120.367188 39.363281 114.9375 C 39.355469 113.765625 38.039062 111.15625 37.144531 110.53125 L 36.328125 109.960938 L 37.265625 108.953125 C 40.984375 104.941406 36.375 98.074219 30.683594 99.140625 C 27.964844 99.648438 25.480469 102.058594 25.371094 104.289062 C 25.3125 105.546875 25.332031 105.5625 27.058594 105.675781 C 28.667969 105.78125 28.863281 105.699219 29.492188 104.628906 C 31.164062 101.804688 35.351562 103.332031 34.296875 106.378906 C 34.011719 107.203125 33.535156 107.558594 32.132812 107.976562 L 30.339844 108.515625 L 30.449219 110.226562 C 30.550781 111.738281 30.671875 111.949219 31.5 112.042969 C 33.703125 112.289062 34.183594 112.550781 34.710938 113.804688 C 36.003906 116.902344 32.527344 119.445312 29.859375 117.347656 C 29.320312 116.921875 28.875 116.246094 28.875 115.847656 C 28.875 115.214844 28.597656 115.125 26.59375 115.125 L 24.316406 115.125 L 24.558594 116.34375 C 24.9375 118.21875 26.640625 120.414062 28.464844 121.375 Z M 87.375 121.511719 C 87.375 121.757812 88.105469 121.871094 89.285156 121.800781 L 91.191406 121.6875 L 95.847656 110.640625 C 98.40625 104.566406 100.5 99.535156 100.5 99.464844 C 100.5 99.398438 99.464844 99.390625 98.203125 99.449219 L 95.90625 99.5625 L 93.921875 104.625 C 92.832031 107.40625 91.738281 109.6875 91.503906 109.6875 C 91.265625 109.6875 90.183594 107.40625 89.105469 104.625 L 87.140625 99.5625 L 84.824219 99.449219 C 82.542969 99.339844 82.511719 99.351562 82.839844 100.199219 C 83.027344 100.675781 84.542969 104.304688 86.214844 108.269531 C 87.886719 112.234375 89.25 115.707031 89.25 115.988281 C 89.25 116.265625 88.828125 117.53125 88.3125 118.804688 C 87.796875 120.070312 87.375 121.289062 87.375 121.511719 Z M 151.5 65.625 L 151.5 88.125 L 155.625 88.125 L 155.625 65.625 Z M 144.375 99.375 L 144.375 121.875 L 148.5 121.875 L 148.5 99.375 Z M 97.3125 84.003906 C 97.03125 84.453125 88.253906 84.511719 87.976562 84.0625 C 87.796875 83.769531 91.925781 73.324219 92.414062 72.835938 C 92.539062 72.710938 92.78125 72.769531 92.957031 72.964844 C 93.601562 73.664062 97.535156 83.640625 97.3125 84.003906 Z M 169.546875 74.0625 L 169.5 76.125 L 168.09375 76.101562 C 165.3125 76.054688 163.5 74.800781 163.5 72.921875 C 163.5 70.847656 164.539062 70 167.296875 69.828125 L 169.6875 69.675781 L 169.640625 70.835938 C 169.617188 71.476562 169.570312 72.929688 169.546875 74.0625 Z M 162.234375 117.191406 C 161.234375 117.847656 157.835938 118.355469 157.40625 117.910156 C 157.253906 117.753906 157.125 116.472656 157.125 115.0625 L 157.125 112.5 L 159.507812 112.5 C 162.308594 112.5 163.125 113.117188 163.125 115.242188 C 163.125 116.265625 162.902344 116.753906 162.234375 117.191406 Z M 161.167969 107.414062 C 160.710938 107.738281 159.609375 108 158.730469 108 L 157.125 108 L 157.125 103.40625 L 159.0625 103.589844 C 161.144531 103.792969 162 104.488281 162 105.984375 C 162 106.453125 161.625 107.097656 161.167969 107.414062 Z M 52.957031 111.914062 C 52.84375 112.03125 51.832031 112.125 50.707031 112.125 C 48.710938 112.125 48.675781 112.105469 48.90625 111.171875 C 49.34375 109.445312 50.671875 106.125 50.933594 106.125 C 51.285156 106.128906 53.21875 111.65625 52.957031 111.914062 Z M 70.589844 78.15625 C 70.238281 78.515625 66.808594 78.40625 66.582031 78.03125 C 66.460938 77.839844 66.773438 76.558594 67.269531 75.191406 C 68.167969 72.722656 68.496094 72.105469 68.761719 72.40625 C 69.144531 72.847656 70.777344 77.972656 70.589844 78.15625 Z M 29.339844 78.15625 C 29.222656 78.277344 28.308594 78.375 27.3125 78.375 C 25.164062 78.375 25.105469 78.179688 26.296875 74.664062 C 26.945312 72.742188 27.179688 72.398438 27.5625 72.808594 C 28.160156 73.449219 29.628906 77.871094 29.339844 78.15625 Z M 29.339844 78.15625 "/>
<path style=" stroke:none;fill-rule:nonzero;fill:rgb(29.803923%,45.882353%,85.882354%);fill-opacity:1;" d="M 129.078125 99.472656 C 130.148438 99.722656 130.210938 100.585938 130.105469 103.445312 C 129.925781 108.488281 130.289062 108.476562 134.054688 103.3125 L 134.96875 102.054688 L 133.648438 103.886719 C 131.859375 106.363281 130.230469 108.496094 130.03125 108.617188 C 129.800781 108.761719 129.769531 107.40625 129.941406 104.910156 C 130.21875 100.839844 130.230469 99.757812 129.078125 99.472656 Z M 127.640625 86.773438 C 127.691406 85.476562 127.691406 82.53125 127.628906 79.3125 C 127.550781 75.214844 127.613281 71.988281 127.765625 72.140625 C 127.921875 72.296875 129.25 75.910156 130.726562 80.179688 L 131.726562 83.085938 L 131.105469 81.292969 C 129.835938 77.640625 128.609375 74.460938 128.386719 74.234375 C 127.75 73.601562 127.550781 75.597656 127.671875 81.375 C 127.675781 81.539062 127.679688 81.699219 127.683594 81.855469 C 127.734375 84.367188 127.765625 85.871094 127.640625 86.773438 Z M 125.570312 88.125 C 125.511719 88.125 125.457031 88.125 125.394531 88.125 C 126.011719 88.125 126.453125 88.105469 126.773438 88.054688 C 126.472656 88.125 126.078125 88.125 125.570312 88.125 Z M 125.570312 88.125 "/>
<path style=" stroke:none;fill-rule:nonzero;fill:rgb(96.862745%,98.823529%,98.823529%);fill-opacity:1;" d="M 28.464844 121.375 C 26.640625 120.414062 24.9375 118.21875 24.558594 116.34375 L 24.316406 115.125 L 26.59375 115.125 C 28.597656 115.125 28.875 115.214844 28.875 115.847656 C 28.875 116.246094 29.320312 116.921875 29.859375 117.347656 C 32.527344 119.445312 36.003906 116.902344 34.710938 113.804688 C 34.183594 112.550781 33.703125 112.289062 31.5 112.042969 C 30.671875 111.949219 30.550781 111.738281 30.449219 110.226562 L 30.339844 108.515625 L 32.132812 107.976562 C 33.535156 107.558594 34.011719 107.203125 34.296875 106.378906 C 35.351562 103.332031 31.164062 101.804688 29.492188 104.628906 C 28.863281 105.699219 28.667969 105.78125 27.058594 105.675781 C 25.332031 105.5625 25.3125 105.546875 25.371094 104.289062 C 25.480469 102.058594 27.964844 99.648438 30.683594 99.140625 C 36.375 98.074219 40.984375 104.941406 37.265625 108.953125 L 36.328125 109.960938 L 37.144531 110.53125 C 38.039062 111.15625 39.355469 113.765625 39.363281 114.9375 C 39.410156 120.367188 33.339844 123.953125 28.464844 121.375 Z M 108.1875 121.65625 C 105.542969 120.710938 103.066406 118.515625 101.722656 115.921875 C 100.640625 113.835938 100.5 113.210938 100.5 110.578125 C 100.5 108.027344 100.65625 107.292969 101.609375 105.40625 C 102.808594 103.027344 104.582031 101.335938 107.25 100.027344 C 109.5625 98.894531 114.183594 98.875 116.644531 99.992188 C 119.421875 101.253906 122.25 104.144531 122.25 105.730469 C 122.25 105.957031 121.398438 106.125 120.25 106.125 C 118.613281 106.125 118.097656 105.960938 117.382812 105.199219 C 115.265625 102.941406 110.441406 102.503906 107.785156 104.320312 C 105.957031 105.574219 104.625 108.21875 104.625 110.597656 C 104.625 114.351562 107.125 117.3125 111.109375 118.269531 C 112.515625 118.609375 114.847656 117.9375 116.195312 116.800781 C 117.125 116.019531 117.6875 115.875 119.769531 115.875 C 121.136719 115.875 122.25 116.03125 122.25 116.21875 C 122.25 117.289062 119.578125 119.914062 117.359375 121.027344 C 115.289062 122.066406 114.554688 122.238281 112.3125 122.214844 C 110.867188 122.203125 109.011719 121.949219 108.1875 121.65625 Z M 40.117188 121.59375 C 40.113281 121.441406 42.164062 116.371094 44.679688 110.324219 L 49.253906 99.335938 L 52.628906 99.5625 L 57.230469 110.4375 C 59.757812 116.417969 61.835938 121.441406 61.851562 121.59375 C 61.863281 121.746094 60.882812 121.875 59.671875 121.875 L 57.460938 121.875 L 56.222656 119.0625 L 54.988281 116.25 L 46.976562 116.25 L 44.523438 121.875 L 42.324219 121.875 C 41.113281 121.875 40.121094 121.746094 40.117188 121.59375 Z M 52.957031 111.914062 C 53.21875 111.65625 51.285156 106.128906 50.933594 106.125 C 50.671875 106.125 49.34375 109.445312 48.90625 111.171875 C 48.675781 112.105469 48.710938 112.125 50.707031 112.125 C 51.832031 112.125 52.84375 112.03125 52.957031 111.914062 Z M 64.5 110.625 L 64.5 99.375 L 80.25 99.375 L 80.25 121.875 L 76.125 121.875 L 76.125 103.5 L 68.625 103.5 L 68.625 121.875 L 64.5 121.875 Z M 87.375 121.511719 C 87.375 121.289062 87.796875 120.070312 88.3125 118.804688 C 88.828125 117.53125 89.25 116.265625 89.25 115.988281 C 89.25 115.707031 87.886719 112.234375 86.214844 108.269531 C 84.542969 104.304688 83.027344 100.675781 82.839844 100.199219 C 82.511719 99.351562 82.542969 99.339844 84.824219 99.449219 L 87.140625 99.5625 L 89.105469 104.625 C 90.183594 107.40625 91.265625 109.6875 91.503906 109.6875 C 91.738281 109.6875 92.832031 107.40625 93.921875 104.625 L 95.90625 99.5625 L 98.203125 99.449219 C 99.464844 99.390625 100.5 99.398438 100.5 99.464844 C 100.5 99.535156 98.40625 104.566406 95.847656 110.640625 L 91.191406 121.6875 L 89.285156 121.800781 C 88.105469 121.871094 87.375 121.757812 87.375 121.511719 Z M 125.625 110.644531 L 125.625 99.375 L 127.660156 99.375 C 130.210938 99.375 130.300781 99.59375 129.941406 104.910156 C 129.769531 107.40625 129.800781 108.761719 130.03125 108.617188 C 130.230469 108.496094 131.859375 106.363281 133.648438 103.886719 L 136.90625 99.375 L 139.328125 99.375 C 140.660156 99.375 141.75 99.460938 141.75 99.570312 C 141.75 99.679688 140.269531 101.660156 138.453125 103.976562 C 136.640625 106.292969 134.800781 108.699219 134.367188 109.320312 L 133.570312 110.457031 L 135.34375 112.882812 C 136.324219 114.222656 138.175781 116.75 139.464844 118.5 L 141.808594 121.6875 L 139.28125 121.800781 C 137.507812 121.878906 136.667969 121.765625 136.460938 121.425781 C 135.234375 119.367188 131.308594 114.003906 130.78125 113.667969 C 130.199219 113.292969 130.121094 113.402344 130.101562 114.652344 C 130.089844 115.429688 130.050781 117.328125 130.007812 118.875 L 129.9375 121.6875 L 125.625 121.914062 Z M 144.375 110.625 L 144.375 99.375 L 148.5 99.375 L 148.5 121.875 L 144.375 121.875 Z M 153 110.574219 L 153 99.273438 L 157.640625 99.453125 C 162.914062 99.65625 164.441406 100.253906 165.519531 102.53125 C 166.613281 104.832031 166.113281 108.082031 164.496094 109.179688 C 164.300781 109.316406 164.820312 110.074219 165.648438 110.867188 C 166.75 111.921875 167.230469 112.734375 167.417969 113.863281 C 167.976562 117.21875 165.96875 120.613281 162.917969 121.457031 C 162.105469 121.683594 159.539062 121.871094 157.21875 121.871094 L 153 121.875 Z M 162.234375 117.191406 C 162.902344 116.753906 163.125 116.265625 163.125 115.242188 C 163.125 113.117188 162.308594 112.5 159.507812 112.5 L 157.125 112.5 L 157.125 115.0625 C 157.125 116.472656 157.253906 117.753906 157.40625 117.910156 C 157.835938 118.355469 161.234375 117.847656 162.234375 117.191406 Z M 161.167969 107.414062 C 161.625 107.097656 162 106.453125 162 105.984375 C 162 104.488281 161.144531 103.792969 159.0625 103.589844 L 157.125 103.40625 L 157.125 108 L 158.730469 108 C 159.609375 108 160.710938 107.738281 161.167969 107.414062 Z M 80.5 92.375 C 80.363281 92.238281 80.25 90.382812 80.25 88.25 L 80.25 84.375 L 83.167969 84.375 L 84.777344 80.53125 C 85.664062 78.417969 87.417969 74.242188 88.671875 71.25 L 90.953125 65.8125 L 94.40625 65.585938 L 95.75 68.886719 C 98.234375 74.996094 101.808594 83.433594 102.117188 83.90625 C 102.28125 84.164062 103.003906 84.375 103.722656 84.375 L 105.027344 84.375 L 104.917969 88.40625 L 104.8125 92.4375 L 103.5 92.4375 C 102.210938 92.4375 102.179688 92.394531 101.671875 90.28125 L 101.164062 88.125 L 84.097656 88.125 L 83.65625 90.375 C 83.21875 92.578125 83.1875 92.625 81.984375 92.625 C 81.304688 92.625 80.636719 92.511719 80.5 92.375 Z M 97.3125 84.003906 C 97.535156 83.640625 93.601562 73.664062 92.957031 72.964844 C 92.78125 72.769531 92.539062 72.710938 92.414062 72.835938 C 91.925781 73.324219 87.796875 83.769531 87.976562 84.0625 C 88.253906 84.511719 97.03125 84.453125 97.3125 84.003906 Z M 16.609375 87.488281 C 16.726562 87.117188 17.8125 84.449219 19.027344 81.5625 C 20.246094 78.675781 22.242188 73.910156 23.464844 70.96875 L 25.6875 65.625 L 27.375 65.628906 L 29.0625 65.636719 L 30.347656 68.722656 C 31.058594 70.421875 33.128906 75.328125 34.941406 79.617188 C 36.761719 83.910156 38.25 87.582031 38.25 87.773438 C 38.25 87.96875 37.261719 88.125 36.050781 88.125 L 33.855469 88.125 L 32.714844 85.40625 L 31.570312 82.6875 L 27.457031 82.582031 L 23.347656 82.476562 L 22.246094 85.207031 L 21.140625 87.9375 L 18.773438 88.050781 C 16.636719 88.152344 16.421875 88.09375 16.609375 87.488281 Z M 29.339844 78.15625 C 29.628906 77.871094 28.160156 73.449219 27.5625 72.808594 C 27.179688 72.398438 26.945312 72.742188 26.296875 74.664062 C 25.105469 78.179688 25.164062 78.375 27.3125 78.375 C 28.308594 78.375 29.222656 78.277344 29.339844 78.15625 Z M 40.875 76.875 L 40.875 65.625 L 45 65.625 L 45 69.9375 C 45 72.460938 45.148438 74.25 45.363281 74.25 C 45.5625 74.25 47.121094 72.308594 48.832031 69.9375 L 51.9375 65.625 L 54.515625 65.625 C 56.523438 65.625 57.011719 65.730469 56.722656 66.09375 C 56.515625 66.351562 55.195312 68.082031 53.785156 69.9375 C 52.375 71.792969 50.667969 73.976562 49.988281 74.785156 C 49.304688 75.597656 48.75 76.398438 48.75 76.566406 C 48.75 76.832031 50.90625 79.871094 55.691406 86.34375 L 57.007812 88.125 L 54.472656 88.125 L 51.9375 88.121094 L 48.9375 83.839844 C 47.289062 81.484375 45.726562 79.460938 45.46875 79.351562 C 45.109375 79.195312 45 80.1875 45 83.636719 L 45 88.125 L 40.875 88.125 Z M 57.746094 87.84375 C 57.742188 87.691406 59.792969 82.628906 62.300781 76.59375 L 66.867188 65.625 L 68.5 65.625 C 69.984375 65.625 70.1875 65.742188 70.691406 66.84375 C 71.558594 68.746094 79.5 87.792969 79.5 87.96875 C 79.5 88.054688 78.480469 88.125 77.230469 88.125 L 74.960938 88.125 L 74.402344 86.71875 C 74.097656 85.945312 73.570312 84.679688 73.242188 83.90625 L 72.636719 82.5 L 64.601562 82.5 L 62.148438 88.125 L 59.949219 88.125 C 58.738281 88.125 57.746094 87.996094 57.746094 87.84375 Z M 70.589844 78.15625 C 70.777344 77.972656 69.144531 72.847656 68.761719 72.40625 C 68.496094 72.105469 68.167969 72.722656 67.269531 75.191406 C 66.773438 76.558594 66.460938 77.839844 66.582031 78.03125 C 66.808594 78.40625 70.238281 78.515625 70.589844 78.15625 Z M 107.625 76.875 L 107.625 65.625 L 119.664062 65.625 L 119.4375 69.5625 L 115.59375 69.667969 L 111.75 69.777344 L 111.75 75 L 119.25 75 L 119.25 79.125 L 111.714844 79.125 L 111.824219 81.65625 L 111.9375 84.1875 L 115.78125 84.292969 L 119.625 84.402344 L 119.625 88.125 L 107.625 88.125 Z M 123.375 76.875 L 123.375 65.625 L 126.347656 65.625 C 129.109375 65.625 129.339844 65.683594 129.578125 66.46875 C 130.332031 68.992188 134.769531 81.238281 135.039062 81.527344 C 135.4375 81.972656 136.214844 80.105469 138.96875 72.09375 L 141.1875 65.628906 L 144.09375 65.625 L 147 65.625 L 147 88.125 L 142.890625 88.125 L 142.789062 81 C 142.734375 77.082031 142.535156 73.832031 142.347656 73.78125 C 142.160156 73.730469 141.089844 76.304688 139.96875 79.5 C 138.851562 82.695312 137.722656 85.902344 137.460938 86.625 C 137.011719 87.878906 136.902344 87.9375 135.195312 87.9375 L 133.402344 87.9375 L 130.726562 80.179688 C 129.25 75.910156 127.921875 72.296875 127.765625 72.140625 C 127.613281 71.988281 127.550781 75.214844 127.628906 79.3125 C 127.707031 83.40625 127.6875 87.066406 127.589844 87.441406 C 127.449219 87.996094 127.03125 88.125 125.390625 88.125 L 123.375 88.125 Z M 151.5 76.875 L 151.5 65.625 L 155.625 65.625 L 155.625 88.125 L 151.5 88.125 Z M 158.625 87.824219 C 158.625 87.660156 159.636719 85.882812 160.875 83.871094 C 162.113281 81.867188 163.125 80.070312 163.125 79.886719 C 163.125 79.703125 162.613281 79.1875 161.992188 78.742188 C 160.265625 77.511719 159.375 75.4375 159.375 72.632812 C 159.375 70.765625 159.5625 69.964844 160.21875 68.996094 C 162.058594 66.289062 163.886719 65.683594 170.34375 65.648438 L 174 65.625 L 174 88.164062 L 169.6875 87.9375 L 169.667969 86.25 C 169.609375 80.527344 169.550781 80.191406 168.671875 80.316406 C 168.078125 80.402344 167.160156 81.535156 165.457031 84.28125 L 163.074219 88.125 L 160.847656 88.125 C 159.625 88.125 158.625 87.988281 158.625 87.824219 Z M 169.546875 74.0625 C 169.570312 72.929688 169.617188 71.476562 169.640625 70.835938 L 169.6875 69.675781 L 167.296875 69.828125 C 164.539062 70 163.5 70.847656 163.5 72.921875 C 163.5 74.800781 165.3125 76.054688 168.09375 76.101562 L 169.5 76.125 Z M 169.546875 74.0625 "/>
</g>
</svg>
